GSerif01-TextBold01.ufo
<glyph name="zero" format="1">
  <advance width="782"/>
  <unicode hex="0030"/>
  <outline>
    <contour>
      <point x="391" y="720" type="curve" smooth="yes"/>
      <point x="189" y="720"/>
      <point x="47" y="569"/>
      <point x="47" y="355" type="curve" smooth="yes"/>
      <point x="47" y="142"/>
      <point x="189" y="-10"/>
      <point x="391" y="-10" type="curve" smooth="yes"/>
      <point x="617" y="-10"/>
      <point x="734" y="142"/>
      <point x="734" y="355" type="curve" smooth="yes"/>
      <point x="734" y="569"/>
      <point x="617" y="720"/>
    </contour>
    <contour>
      <point x="391" y="607" type="curve" smooth="yes"/>
      <point x="516" y="607"/>
      <point x="564" y="507"/>
      <point x="564" y="355" type="curve" smooth="yes"/>
      <point x="564" y="203"/>
      <point x="516" y="103"/>
      <point x="391" y="103" type="curve" smooth="yes"/>
      <point x="284" y="103"/>
      <point x="218" y="203"/>
      <point x="218" y="355" type="curve" smooth="yes"/>
      <point x="218" y="507"/>
      <point x="284" y="607"/>
    </contour>
  </outline>
</glyph>
<glyph name="four" format="1">
  <advance width="650"/>
  <unicode hex="0034"/>
  <outline>
    <contour>
      <point x="255" y="97" type="line"/>
      <point x="255" y="0" type="line"/>
      <point x="626" y="0" type="line"/>
      <point x="626" y="97" type="line"/>
      <point x="520" y="97" type="line"/>
      <point x="520" y="97" type="line"/>
      <point x="362" y="97" type="line"/>
      <point x="362" y="97" type="line"/>
    </contour>
    <contour>
      <point x="362" y="710" type="line"/>
      <point x="362" y="0" type="line"/>
      <point x="520" y="0" type="line"/>
      <point x="520" y="710" type="line"/>
    </contour>
    <contour>
      <point x="25" y="208" type="line"/>
      <point x="632" y="208" type="line"/>
      <point x="632" y="299" type="line"/>
      <point x="92" y="299" type="line"/>
      <point x="112" y="252" type="line"/>
      <point x="409" y="652" type="line"/>
      <point x="445" y="710" type="line"/>
      <point x="335" y="710" type="line"/>
      <point x="25" y="287" type="line"/>
    </contour>
  </outline>
</glyph>
<glyph name="five" format="1">
  <advance width="645"/>
  <unicode hex="0035"/>
  <outline>
    <contour>
      <point x="206" y="407" type="line"/>
      <point x="257" y="659" type="line"/>
      <point x="198" y="597" type="line"/>
      <point x="556" y="597" type="line"/>
      <point x="556" y="710" type="line"/>
      <point x="140" y="710" type="line"/>
      <point x="79" y="407" type="line"/>
      <point x="79" y="346" type="line"/>
      <point x="238" y="346" type="line" smooth="yes"/>
      <point x="381" y="346"/>
      <point x="444" y="308"/>
      <point x="444" y="217" type="curve" smooth="yes"/>
      <point x="444" y="134"/>
      <point x="394" y="93"/>
      <point x="327" y="93" type="curve" smooth="yes"/>
      <point x="253" y="93"/>
      <point x="204" y="130"/>
      <point x="194" y="219" type="curve"/>
      <point x="29" y="219" type="line"/>
      <point x="46" y="65"/>
      <point x="166" y="-10"/>
      <point x="329" y="-10" type="curve" smooth="yes"/>
      <point x="479" y="-10"/>
      <point x="609" y="66"/>
      <point x="609" y="220" type="curve" smooth="yes"/>
      <point x="609" y="361"/>
      <point x="498" y="444"/>
      <point x="273" y="444" type="curve" smooth="yes"/>
      <point x="149" y="444" type="line"/>
    </contour>
  </outline>
</glyph>
<glyph name="B" format="1">
  <advance width="724"/>
  <unicode hex="0042"/>
  <outline>
    <contour>
      <point x="121" y="0" type="line"/>
      <point x="291" y="0" type="line"/>
      <point x="291" y="710" type="line"/>
      <point x="121" y="710" type="line"/>
    </contour>
    <contour>
      <point x="408" y="0" type="line" smooth="yes"/>
      <point x="588" y="0"/>
      <point x="687" y="76"/>
      <point x="687" y="200" type="curve" smooth="yes"/>
      <point x="687" y="316"/>
      <point x="578" y="384"/>
      <point x="393" y="384" type="curve"/>
      <point x="384" y="365" type="line"/>
      <point x="557" y="365"/>
      <point x="655" y="427"/>
      <point x="655" y="534" type="curve" smooth="yes"/>
      <point x="655" y="640"/>
      <point x="565" y="710"/>
      <point x="397" y="710" type="curve" smooth="yes"/>
      <point x="38" y="710" type="line"/>
      <point x="38" y="651" type="line"/>
      <point x="44" y="651" type="line" smooth="yes"/>
      <point x="85" y="650"/>
      <point x="121" y="644"/>
      <point x="121" y="615" type="curve"/>
      <point x="191" y="645" type="line"/>
      <point x="365" y="645" type="line" smooth="yes"/>
      <point x="452" y="645"/>
      <point x="490" y="598"/>
      <point x="490" y="525" type="curve" smooth="yes"/>
      <point x="490" y="447"/>
      <point x="456" y="401"/>
      <point x="367" y="401" type="curve" smooth="yes"/>
      <point x="213" y="401" type="line"/>
      <point x="213" y="341" type="line"/>
      <point x="368" y="341" type="line" smooth="yes"/>
      <point x="470" y="341"/>
      <point x="511" y="289"/>
      <point x="511" y="207" type="curve" smooth="yes"/>
      <point x="511" y="119"/>
      <point x="466" y="65"/>
      <point x="368" y="65" type="curve" smooth="yes"/>
      <point x="197" y="65" type="line"/>
      <point x="121" y="95" type="line"/>
      <point x="121" y="66"/>
      <point x="85" y="60"/>
      <point x="44" y="59" type="curve" smooth="yes"/>
      <point x="38" y="59" type="line"/>
      <point x="38" y="0" type="line"/>
    </contour>
  </outline>
</glyph>
<glyph name="G" format="1">
  <advance width="828"/>
  <unicode hex="0047"/>
  <outline>
    <contour>
      <point x="230" y="354" type="curve" smooth="yes"/>
      <point x="230" y="532"/>
      <point x="311" y="648"/>
      <point x="440" y="648" type="curve" smooth="yes"/>
      <point x="522" y="648"/>
      <point x="582" y="606"/>
      <point x="606" y="551" type="curve"/>
      <point x="614" y="593"/>
      <point x="590" y="619"/>
      <point x="565" y="618" type="curve"/>
      <point x="565" y="483" type="line"/>
      <point x="730" y="483" type="line"/>
      <point x="730" y="604" type="line"/>
      <point x="689" y="660"/>
      <point x="586" y="721"/>
      <point x="435" y="721" type="curve" smooth="yes"/>
      <point x="207" y="721"/>
      <point x="44" y="569"/>
      <point x="44" y="354" type="curve" smooth="yes"/>
      <point x="44" y="136"/>
      <point x="188" y="-11"/>
      <point x="430" y="-11" type="curve" smooth="yes"/>
      <point x="570" y="-11"/>
      <point x="692" y="51"/>
      <point x="735" y="104" type="curve"/>
      <point x="735" y="309" type="line"/>
      <point x="574" y="317" type="line"/>
      <point x="574" y="115" type="line"/>
      <point x="553" y="94"/>
      <point x="506" y="64"/>
      <point x="440" y="64" type="curve" smooth="yes"/>
      <point x="299" y="64"/>
      <point x="230" y="174"/>
    </contour>
    <contour>
      <point x="735" y="258" type="line"/>
      <point x="735" y="287"/>
      <point x="769" y="293"/>
      <point x="805" y="294" type="curve" smooth="yes"/>
      <point x="806" y="294" type="line"/>
      <point x="806" y="353" type="line"/>
      <point x="489" y="353" type="line"/>
      <point x="489" y="294" type="line"/>
      <point x="495" y="294" type="line" smooth="yes"/>
      <point x="538" y="293"/>
      <point x="574" y="287"/>
      <point x="574" y="258" type="curve"/>
    </contour>
  </outline>
</glyph>
<glyph name="N" format="1">
  <advance width="796"/>
  <unicode hex="004E"/>
  <outline>
    <contour>
      <point x="38" y="0" type="line"/>
      <point x="285" y="0" type="line"/>
      <point x="285" y="59" type="line"/>
      <point x="278" y="59" type="line"/>
      <point x="242" y="59"/>
      <point x="196" y="64"/>
      <point x="196" y="74" type="curve"/>
      <point x="121" y="100" type="line"/>
      <point x="121" y="68"/>
      <point x="85" y="60"/>
      <point x="44" y="59" type="curve"/>
      <point x="38" y="59" type="line"/>
    </contour>
    <contour>
      <point x="762" y="710" type="line"/>
      <point x="516" y="710" type="line"/>
      <point x="516" y="651" type="line"/>
      <point x="522" y="651" type="line"/>
      <point x="559" y="651"/>
      <point x="605" y="646"/>
      <point x="605" y="636" type="curve"/>
      <point x="678" y="610" type="line"/>
      <point x="678" y="642"/>
      <point x="714" y="650"/>
      <point x="756" y="651" type="curve"/>
      <point x="762" y="651" type="line"/>
    </contour>
    <contour>
      <point x="38" y="710" type="line"/>
      <point x="38" y="651" type="line"/>
      <point x="44" y="651" type="line"/>
      <point x="85" y="650"/>
      <point x="121" y="644"/>
      <point x="121" y="615" type="curve"/>
      <point x="121" y="0" type="line"/>
      <point x="196" y="0" type="line"/>
      <point x="196" y="696" type="line"/>
      <point x="167" y="654" type="line"/>
      <point x="528" y="0" type="line"/>
      <point x="678" y="0" type="line"/>
      <point x="678" y="710" type="line"/>
      <point x="605" y="710" type="line"/>
      <point x="605" y="65" type="line"/>
      <point x="639" y="109" type="line"/>
      <point x="307" y="710" type="line"/>
    </contour>
  </outline>
</glyph>
<glyph name="R" format="1">
  <advance width="748"/>
  <unicode hex="0052"/>
  <outline>
    <contour>
      <point x="121" y="0" type="line"/>
      <point x="291" y="0" type="line"/>
      <point x="291" y="710" type="line"/>
      <point x="121" y="710" type="line"/>
    </contour>
    <contour>
      <point x="360" y="314" type="line"/>
      <point x="514" y="0" type="line"/>
      <point x="680" y="0" type="line"/>
      <point x="685" y="38" type="line"/>
      <point x="524" y="338" type="line"/>
    </contour>
    <contour>
      <point x="729" y="0" type="line"/>
      <point x="729" y="59" type="line"/>
      <point x="725" y="59" type="line"/>
      <point x="690" y="59"/>
      <point x="671" y="63"/>
      <point x="654" y="94" type="curve"/>
      <point x="638" y="0" type="line"/>
    </contour>
    <contour>
      <point x="217" y="644" type="line"/>
      <point x="355" y="644" type="line" smooth="yes"/>
      <point x="443" y="644"/>
      <point x="484" y="589"/>
      <point x="484" y="501" type="curve" smooth="yes"/>
      <point x="484" y="410"/>
      <point x="446" y="358"/>
      <point x="351" y="358" type="curve" smooth="yes"/>
      <point x="214" y="358" type="line"/>
      <point x="214" y="295" type="line"/>
      <point x="371" y="295" type="line" smooth="yes"/>
      <point x="553" y="295"/>
      <point x="662" y="372"/>
      <point x="662" y="501" type="curve" smooth="yes"/>
      <point x="662" y="631"/>
      <point x="559" y="710"/>
      <point x="377" y="710" type="curve" smooth="yes"/>
      <point x="38" y="710" type="line"/>
      <point x="38" y="651" type="line"/>
      <point x="44" y="651" type="line"/>
      <point x="85" y="650"/>
      <point x="121" y="644"/>
      <point x="121" y="615" type="curve"/>
    </contour>
    <contour>
      <point x="38" y="0" type="line"/>
      <point x="355" y="0" type="line"/>
      <point x="355" y="59" type="line"/>
      <point x="351" y="59" type="line" smooth="yes"/>
      <point x="325" y="60"/>
      <point x="291" y="62"/>
      <point x="291" y="69" type="curve"/>
      <point x="121" y="95" type="line"/>
      <point x="121" y="66"/>
      <point x="85" y="60"/>
      <point x="44" y="59" type="curve" smooth="yes"/>
      <point x="38" y="59" type="line"/>
    </contour>
  </outline>
</glyph>
<glyph name="S" format="1">
  <advance width="687"/>
  <unicode hex="0053"/>
  <outline>
    <contour>
      <point x="350" y="56" type="curve" smooth="yes"/>
      <point x="246" y="56"/>
      <point x="162" y="121"/>
      <point x="139" y="235" type="curve"/>
      <point x="48" y="235" type="line"/>
      <point x="48" y="0" type="line"/>
      <point x="119" y="0" type="line"/>
      <point x="135" y="156" type="line"/>
      <point x="124" y="180"/>
      <point x="107" y="176"/>
      <point x="92" y="183" type="curve"/>
      <point x="124" y="56"/>
      <point x="231" y="-13"/>
      <point x="367" y="-13" type="curve" smooth="yes"/>
      <point x="523" y="-13"/>
      <point x="637" y="65"/>
      <point x="637" y="210" type="curve" smooth="yes"/>
      <point x="637" y="364"/>
      <point x="513" y="404"/>
      <point x="401" y="433" type="curve" smooth="yes"/>
      <point x="303" y="460"/>
      <point x="216" y="476"/>
      <point x="216" y="556" type="curve" smooth="yes"/>
      <point x="216" y="616"/>
      <point x="256" y="654"/>
      <point x="336" y="654" type="curve" smooth="yes"/>
      <point x="431" y="654"/>
      <point x="493" y="594"/>
      <point x="514" y="509" type="curve"/>
      <point x="599" y="509" type="line"/>
      <point x="599" y="710" type="line"/>
      <point x="530" y="710" type="line"/>
      <point x="513" y="565" type="line"/>
      <point x="530" y="548"/>
      <point x="539" y="551"/>
      <point x="554" y="551" type="curve"/>
      <point x="520" y="667"/>
      <point x="435" y="721"/>
      <point x="315" y="721" type="curve" smooth="yes"/>
      <point x="169" y="721"/>
      <point x="66" y="642"/>
      <point x="66" y="519" type="curve"/>
      <point x="66" y="371"/>
      <point x="186" y="330"/>
      <point x="295" y="300" type="curve" smooth="yes"/>
      <point x="391" y="274"/>
      <point x="477" y="254"/>
      <point x="477" y="161" type="curve" smooth="yes"/>
      <point x="477" y="87"/>
      <point x="429" y="56"/>
    </contour>
  </outline>
</glyph>
<glyph name="T" format="1">
  <advance width="736"/>
  <unicode hex="0054"/>
  <outline>
    <contour>
      <point x="283" y="0" type="line"/>
      <point x="453" y="0" type="line"/>
      <point x="453" y="710" type="line"/>
      <point x="283" y="710" type="line"/>
    </contour>
    <contour>
      <point x="487" y="644" type="line" smooth="yes"/>
      <point x="575" y="644"/>
      <point x="612" y="637"/>
      <point x="616" y="601" type="curve" smooth="yes"/>
      <point x="634" y="480" type="line"/>
      <point x="699" y="480" type="line"/>
      <point x="699" y="710" type="line"/>
      <point x="37" y="710" type="line"/>
      <point x="37" y="480" type="line"/>
      <point x="101" y="480" type="line"/>
      <point x="119" y="601" type="line" smooth="yes"/>
      <point x="124" y="637"/>
      <point x="161" y="644"/>
      <point x="249" y="644" type="curve" smooth="yes"/>
    </contour>
    <contour>
      <point x="283" y="95" type="line"/>
      <point x="283" y="66"/>
      <point x="247" y="60"/>
      <point x="205" y="59" type="curve" smooth="yes"/>
      <point x="198" y="59" type="line"/>
      <point x="198" y="0" type="line"/>
      <point x="538" y="0" type="line"/>
      <point x="538" y="59" type="line"/>
      <point x="530" y="59" type="line" smooth="yes"/>
      <point x="489" y="60"/>
      <point x="453" y="66"/>
      <point x="453" y="95" type="curve"/>
    </contour>
  </outline>
</glyph>
<glyph name="a" format="1">
  <advance width="614"/>
  <unicode hex="0061"/>
  <outline>
    <contour>
      <point x="435" y="326" type="line"/>
      <point x="174" y="301"/>
      <point x="44" y="250"/>
      <point x="44" y="131" type="curve" smooth="yes"/>
      <point x="44" y="41"/>
      <point x="119" y="-12"/>
      <point x="219" y="-12" type="curve" smooth="yes"/>
      <point x="309" y="-12"/>
      <point x="370" y="34"/>
      <point x="400" y="106" type="curve"/>
      <point x="461" y="196"/>
      <point x="398" y="151"/>
      <point x="390" y="152" type="curve"/>
      <point x="362" y="90"/>
      <point x="323" y="54"/>
      <point x="275" y="54" type="curve" smooth="yes"/>
      <point x="230" y="54"/>
      <point x="203" y="84"/>
      <point x="203" y="135" type="curve" smooth="yes"/>
      <point x="203" y="212"/>
      <point x="266" y="254"/>
      <point x="418" y="273" type="curve"/>
    </contour>
    <contour>
      <point x="382" y="0" type="line"/>
      <point x="598" y="0" type="line"/>
      <point x="598" y="51" type="line"/>
      <point x="598" y="51" type="line"/>
      <point x="561" y="53"/>
      <point x="526" y="59"/>
      <point x="526" y="88" type="curve" smooth="yes"/>
      <point x="526" y="378" type="line" smooth="yes"/>
      <point x="526" y="512"/>
      <point x="414" y="552"/>
      <point x="305" y="552" type="curve" smooth="yes"/>
      <point x="195" y="552"/>
      <point x="113" y="509"/>
      <point x="79" y="463" type="curve"/>
      <point x="79" y="376" type="line"/>
      <point x="224" y="376" type="line"/>
      <point x="224" y="491" type="line"/>
      <point x="205" y="491"/>
      <point x="191" y="468"/>
      <point x="190" y="424" type="curve"/>
      <point x="210" y="462"/>
      <point x="244" y="486"/>
      <point x="299" y="486" type="curve" smooth="yes"/>
      <point x="346" y="486"/>
      <point x="374" y="465"/>
      <point x="374" y="396" type="curve" smooth="yes"/>
      <point x="374" y="98" type="line"/>
      <point x="382" y="95" type="line"/>
    </contour>
  </outline>
</glyph>
<glyph name="b" format="1">
  <advance width="708"/>
  <unicode hex="0062"/>
  <outline>
    <contour>
      <point x="502" y="274" type="curve" smooth="yes"/>
      <point x="502" y="147"/>
      <point x="457" y="63"/>
      <point x="375" y="63" type="curve" smooth="yes"/>
      <point x="306" y="63"/>
      <point x="258" y="102"/>
      <point x="221" y="185" type="curve"/>
      <point x="218" y="185"/>
      <point x="180" y="165"/>
      <point x="178" y="166" type="curve"/>
      <point x="240" y="41"/>
      <point x="302" y="-12"/>
      <point x="411" y="-12" type="curve" smooth="yes"/>
      <point x="564" y="-12"/>
      <point x="667" y="105"/>
      <point x="667" y="274" type="curve" smooth="yes"/>
      <point x="667" y="442"/>
      <point x="568" y="552"/>
      <point x="420" y="552" type="curve" smooth="yes"/>
      <point x="310" y="552"/>
      <point x="250" y="497"/>
      <point x="178" y="371" type="curve"/>
      <point x="181" y="372"/>
      <point x="215" y="345"/>
      <point x="214" y="348" type="curve"/>
      <point x="254" y="432"/>
      <point x="308" y="477"/>
      <point x="377" y="477" type="curve" smooth="yes"/>
      <point x="457" y="477"/>
      <point x="502" y="398"/>
    </contour>
    <contour>
      <point x="17" y="750" type="line"/>
      <point x="17" y="696" type="line"/>
      <point x="27" y="693" type="line" smooth="yes"/>
      <point x="66" y="684"/>
      <point x="90" y="678"/>
      <point x="90" y="649" type="curve" smooth="yes"/>
      <point x="90" y="-3" type="line"/>
      <point x="167" y="-3" type="line"/>
      <point x="232" y="103" type="line"/>
      <point x="245" y="106" type="line"/>
      <point x="245" y="750" type="line"/>
    </contour>
  </outline>
</glyph>
<glyph name="k" format="1">
  <advance width="710"/>
  <unicode hex="006B"/>
  <outline>
    <contour>
      <point x="383" y="342" type="line"/>
      <point x="357" y="281" type="line"/>
      <point x="609" y="502" type="line"/>
      <point x="587" y="535" type="line"/>
      <point x="541" y="531" type="line"/>
      <point x="270" y="291" type="line"/>
      <point x="268" y="278" type="line"/>
      <point x="512" y="0" type="line"/>
      <point x="623" y="0" type="line"/>
      <point x="652" y="42" type="line"/>
    </contour>
    <contour>
      <point x="34" y="0" type="line"/>
      <point x="321" y="0" type="line"/>
      <point x="321" y="51" type="line"/>
      <point x="321" y="51" type="line"/>
      <point x="298" y="52"/>
      <point x="262" y="55"/>
      <point x="262" y="61" type="curve"/>
      <point x="107" y="88" type="line"/>
      <point x="107" y="59"/>
      <point x="72" y="53"/>
      <point x="35" y="51" type="curve"/>
      <point x="34" y="51" type="line"/>
    </contour>
    <contour>
      <point x="701" y="0" type="line"/>
      <point x="701" y="51" type="line"/>
      <point x="700" y="51" type="line"/>
      <point x="665" y="53"/>
      <point x="639" y="57"/>
      <point x="610" y="88" type="curve"/>
      <point x="457" y="61" type="line"/>
      <point x="457" y="55"/>
      <point x="419" y="52"/>
      <point x="394" y="51" type="curve"/>
      <point x="394" y="51" type="line"/>
      <point x="394" y="0" type="line"/>
    </contour>
    <contour>
      <point x="652" y="542" type="line"/>
      <point x="404" y="542" type="line"/>
      <point x="404" y="491" type="line"/>
      <point x="404" y="491" type="line"/>
      <point x="438" y="490"/>
      <point x="479" y="486"/>
      <point x="479" y="476" type="curve"/>
      <point x="546" y="445" type="line"/>
      <point x="581" y="477"/>
      <point x="610" y="489"/>
      <point x="652" y="491" type="curve"/>
      <point x="652" y="491" type="line"/>
    </contour>
    <contour>
      <point x="107" y="0" type="line"/>
      <point x="262" y="0" type="line"/>
      <point x="262" y="750" type="line"/>
      <point x="34" y="750" type="line"/>
      <point x="34" y="696" type="line"/>
      <point x="44" y="693" type="line" smooth="yes"/>
      <point x="83" y="684"/>
      <point x="107" y="678"/>
      <point x="107" y="649" type="curve" smooth="yes"/>
    </contour>
  </outline>
</glyph>
<glyph name="m" format="1">
  <advance width="1001"/>
  <unicode hex="006D"/>
  <outline>
    <contour>
      <point x="371" y="474" type="curve" smooth="yes"/>
      <point x="415" y="474"/>
      <point x="428" y="447"/>
      <point x="428" y="383" type="curve" smooth="yes"/>
      <point x="428" y="0" type="line"/>
      <point x="584" y="0" type="line"/>
      <point x="584" y="384" type="line"/>
      <point x="584" y="499"/>
      <point x="518" y="552"/>
      <point x="423" y="552" type="curve" smooth="yes"/>
      <point x="326" y="552"/>
      <point x="270" y="499"/>
      <point x="202" y="383" type="curve"/>
      <point x="205" y="375"/>
      <point x="231" y="354"/>
      <point x="232" y="355" type="curve"/>
      <point x="276" y="431"/>
      <point x="318" y="474"/>
    </contour>
    <contour>
      <point x="692" y="474" type="curve" smooth="yes"/>
      <point x="735" y="474"/>
      <point x="749" y="447"/>
      <point x="749" y="383" type="curve" smooth="yes"/>
      <point x="749" y="0" type="line"/>
      <point x="904" y="0" type="line"/>
      <point x="904" y="384" type="line"/>
      <point x="904" y="499"/>
      <point x="839" y="552"/>
      <point x="744" y="552" type="curve" smooth="yes"/>
      <point x="647" y="552"/>
      <point x="591" y="499"/>
      <point x="523" y="383" type="curve"/>
      <point x="526" y="375"/>
      <point x="552" y="354"/>
      <point x="552" y="355" type="curve"/>
      <point x="597" y="431"/>
      <point x="639" y="474"/>
    </contour>
    <contour>
      <point x="34" y="0" type="line"/>
      <point x="317" y="0" type="line"/>
      <point x="317" y="51" type="line"/>
      <point x="317" y="51" type="line"/>
      <point x="296" y="52"/>
      <point x="263" y="55"/>
      <point x="263" y="61" type="curve"/>
      <point x="108" y="88" type="line"/>
      <point x="108" y="59"/>
      <point x="72" y="53"/>
      <point x="35" y="51" type="curve"/>
      <point x="34" y="51" type="line"/>
    </contour>
    <contour>
      <point x="34" y="542" type="line"/>
      <point x="34" y="487" type="line"/>
      <point x="44" y="484" type="line" smooth="yes"/>
      <point x="83" y="475"/>
      <point x="108" y="468"/>
      <point x="108" y="440" type="curve" smooth="yes"/>
      <point x="108" y="0" type="line"/>
      <point x="263" y="0" type="line"/>
      <point x="263" y="437" type="line"/>
      <point x="255" y="442" type="line"/>
      <point x="255" y="542" type="line"/>
    </contour>
    <contour>
      <point x="374" y="0" type="line"/>
      <point x="638" y="0" type="line"/>
      <point x="638" y="51" type="line"/>
      <point x="638" y="51" type="line"/>
      <point x="617" y="52"/>
      <point x="584" y="55"/>
      <point x="584" y="61" type="curve"/>
      <point x="428" y="61" type="line"/>
      <point x="428" y="55"/>
      <point x="395" y="52"/>
      <point x="374" y="51" type="curve"/>
      <point x="374" y="51" type="line"/>
    </contour>
    <contour>
      <point x="978" y="0" type="line"/>
      <point x="978" y="51" type="line"/>
      <point x="977" y="51" type="line"/>
      <point x="940" y="53"/>
      <point x="904" y="59"/>
      <point x="904" y="88" type="curve"/>
      <point x="749" y="61" type="line"/>
      <point x="749" y="55"/>
      <point x="716" y="52"/>
      <point x="695" y="51" type="curve"/>
      <point x="695" y="51" type="line"/>
      <point x="695" y="0" type="line"/>
    </contour>
  </outline>
</glyph>
<glyph name="p" format="1">
  <advance width="722"/>
  <unicode hex="0070"/>
  <outline>
    <contour>
      <point x="516" y="274" type="curve" smooth="yes"/>
      <point x="516" y="147"/>
      <point x="471" y="63"/>
      <point x="389" y="63" type="curve" smooth="yes"/>
      <point x="321" y="63"/>
      <point x="274" y="103"/>
      <point x="235" y="185" type="curve"/>
      <point x="231" y="185"/>
      <point x="194" y="165"/>
      <point x="192" y="166" type="curve"/>
      <point x="255" y="41"/>
      <point x="316" y="-12"/>
      <point x="425" y="-12" type="curve" smooth="yes"/>
      <point x="578" y="-12"/>
      <point x="681" y="105"/>
      <point x="681" y="274" type="curve" smooth="yes"/>
      <point x="681" y="442"/>
      <point x="582" y="552"/>
      <point x="433" y="552" type="curve" smooth="yes"/>
      <point x="324" y="552"/>
      <point x="263" y="497"/>
      <point x="191" y="371" type="curve"/>
      <point x="194" y="372"/>
      <point x="229" y="345"/>
      <point x="228" y="348" type="curve"/>
      <point x="268" y="432"/>
      <point x="322" y="477"/>
      <point x="391" y="477" type="curve" smooth="yes"/>
      <point x="472" y="477"/>
      <point x="516" y="398"/>
    </contour>
    <contour>
      <point x="31" y="-223" type="line"/>
      <point x="347" y="-223" type="line"/>
      <point x="347" y="-172" type="line"/>
      <point x="333" y="-172" type="line" smooth="yes"/>
      <point x="297" y="-171"/>
      <point x="259" y="-168"/>
      <point x="259" y="-162" type="curve"/>
      <point x="104" y="-135" type="line"/>
      <point x="104" y="-164"/>
      <point x="68" y="-170"/>
      <point x="32" y="-172" type="curve"/>
      <point x="31" y="-172" type="line"/>
    </contour>
    <contour>
      <point x="31" y="542" type="line"/>
      <point x="31" y="488" type="line"/>
      <point x="41" y="485" type="line" smooth="yes"/>
      <point x="79" y="476"/>
      <point x="104" y="470"/>
      <point x="104" y="441" type="curve" smooth="yes"/>
      <point x="104" y="-212" type="line"/>
      <point x="259" y="-212" type="line"/>
      <point x="259" y="427" type="line"/>
      <point x="251" y="421" type="line"/>
      <point x="251" y="542" type="line"/>
    </contour>
  </outline>
</glyph>
<glyph name="s" format="1">
  <advance width="554"/>
  <unicode hex="0073"/>
  <outline>
    <contour>
      <point x="379" y="134" type="curve"/>
      <point x="379" y="82"/>
      <point x="342" y="50"/>
      <point x="277" y="50" type="curve" smooth="yes"/>
      <point x="221" y="50"/>
      <point x="176" y="65"/>
      <point x="154" y="107" type="curve"/>
      <point x="143" y="74"/>
      <point x="146" y="58"/>
      <point x="175" y="44" type="curve"/>
      <point x="175" y="164" type="line"/>
      <point x="30" y="164" type="line"/>
      <point x="30" y="81" type="line"/>
      <point x="73" y="22"/>
      <point x="161" y="-12"/>
      <point x="279" y="-12" type="curve" smooth="yes"/>
      <point x="435" y="-12"/>
      <point x="525" y="57"/>
      <point x="525" y="165" type="curve" smooth="yes"/>
      <point x="525" y="385"/>
      <point x="197" y="285"/>
      <point x="197" y="420" type="curve" smooth="yes"/>
      <point x="197" y="462"/>
      <point x="226" y="493"/>
      <point x="284" y="493" type="curve" smooth="yes"/>
      <point x="327" y="493"/>
      <point x="364" y="480"/>
      <point x="386" y="441" type="curve"/>
      <point x="400" y="475"/>
      <point x="389" y="497"/>
      <point x="355" y="494" type="curve"/>
      <point x="355" y="398" type="line"/>
      <point x="497" y="398" type="line"/>
      <point x="497" y="463" type="line"/>
      <point x="467" y="517"/>
      <point x="389" y="552"/>
      <point x="277" y="552" type="curve" smooth="yes"/>
      <point x="136" y="552"/>
      <point x="49" y="489"/>
      <point x="49" y="384" type="curve" smooth="yes"/>
      <point x="49" y="167"/>
      <point x="379" y="251"/>
    </contour>
  </outline>
</glyph>
<glyph name="E.alt" format="1">
  <advance width="674"/>
  <outline>
    <contour>
      <point x="121" y="0" type="line"/>
      <point x="291" y="0" type="line"/>
      <point x="291" y="710" type="line"/>
      <point x="121" y="710" type="line"/>
    </contour>
    <contour>
      <point x="229" y="397" type="line"/>
      <point x="229" y="333" type="line"/>
      <point x="479" y="333" type="line"/>
      <point x="479" y="397" type="line"/>
    </contour>
    <contour>
      <point x="38" y="710" type="line"/>
      <point x="38" y="650" type="line"/>
      <point x="44" y="650" type="line" smooth="yes"/>
      <point x="85" y="649"/>
      <point x="121" y="643"/>
      <point x="121" y="614" type="curve"/>
      <point x="177" y="644" type="line"/>
      <point x="389" y="644" type="line" smooth="yes"/>
      <point x="485" y="644"/>
      <point x="524" y="637"/>
      <point x="530" y="601" type="curve" smooth="yes"/>
      <point x="548" y="498" type="line"/>
      <point x="613" y="498" type="line"/>
      <point x="613" y="710" type="line"/>
    </contour>
    <contour>
      <point x="38" y="0" type="line"/>
      <point x="635" y="0" type="line"/>
      <point x="635" y="236" type="line"/>
      <point x="568" y="236" type="line"/>
      <point x="550" y="109" type="line" smooth="yes"/>
      <point x="546" y="73"/>
      <point x="505" y="66"/>
      <point x="409" y="66" type="curve" smooth="yes"/>
      <point x="169" y="66" type="line"/>
      <point x="121" y="95" type="line"/>
      <point x="121" y="66"/>
      <point x="85" y="60"/>
      <point x="44" y="59" type="curve" smooth="yes"/>
      <point x="38" y="59" type="line"/>
    </contour>
    <contour>
      <point x="495" y="262" type="line"/>
      <point x="495" y="469" type="line"/>
      <point x="442" y="469" type="line"/>
      <point x="442" y="466" type="line"/>
      <point x="442" y="424"/>
      <point x="433" y="397"/>
      <point x="404" y="397" type="curve"/>
      <point x="404" y="333" type="line"/>
      <point x="433" y="333"/>
      <point x="442" y="306"/>
      <point x="442" y="265" type="curve"/>
      <point x="442" y="262" type="line"/>
    </contour>
  </outline>
</glyph>
<glyph name="J.alt" format="1">
  <advance width="659"/>
  <outline>
    <contour>
      <point x="538" y="615" type="line"/>
      <point x="538" y="644"/>
      <point x="574" y="650"/>
      <point x="615" y="651" type="curve" smooth="yes"/>
      <point x="621" y="651" type="line"/>
      <point x="621" y="710" type="line"/>
      <point x="279" y="710" type="line"/>
      <point x="279" y="651" type="line"/>
      <point x="289" y="651" type="line" smooth="yes"/>
      <point x="332" y="650"/>
      <point x="368" y="644"/>
      <point x="368" y="615" type="curve"/>
    </contour>
    <contour>
      <point x="261" y="62" type="curve"/>
      <point x="214" y="62"/>
      <point x="173" y="80"/>
      <point x="152" y="120" type="curve"/>
      <point x="133" y="122"/>
      <point x="149" y="74"/>
      <point x="183" y="68" type="curve"/>
      <point x="183" y="194" type="line"/>
      <point x="25" y="194" type="line"/>
      <point x="25" y="75" type="line"/>
      <point x="70" y="28"/>
      <point x="154" y="-10"/>
      <point x="267" y="-10" type="curve"/>
      <point x="428" y="-10"/>
      <point x="538" y="58"/>
      <point x="538" y="247" type="curve" smooth="yes"/>
      <point x="538" y="710" type="line"/>
      <point x="368" y="710" type="line"/>
      <point x="368" y="204" type="line" smooth="yes"/>
      <point x="368" y="94"/>
      <point x="327" y="62"/>
    </contour>
  </outline>
</glyph>
<glyph name="Q.alt2" format="1">
  <advance width="834"/>
  <outline>
    <contour>
      <point x="417" y="-11" type="curve" smooth="yes"/>
      <point x="635" y="-11"/>
      <point x="790" y="138"/>
      <point x="790" y="355" type="curve" smooth="yes"/>
      <point x="790" y="573"/>
      <point x="635" y="721"/>
      <point x="417" y="721" type="curve" smooth="yes"/>
      <point x="199" y="721"/>
      <point x="44" y="573"/>
      <point x="44" y="355" type="curve" smooth="yes"/>
      <point x="44" y="138"/>
      <point x="199" y="-11"/>
    </contour>
    <contour>
      <point x="417" y="63" type="curve" smooth="yes"/>
      <point x="304" y="63"/>
      <point x="229" y="174"/>
      <point x="229" y="355" type="curve" smooth="yes"/>
      <point x="229" y="536"/>
      <point x="304" y="647"/>
      <point x="417" y="647" type="curve" smooth="yes"/>
      <point x="530" y="647"/>
      <point x="605" y="536"/>
      <point x="605" y="355" type="curve" smooth="yes"/>
      <point x="605" y="174"/>
      <point x="530" y="63"/>
    </contour>
    <contour>
      <point x="218" y="-193" type="curve"/>
      <point x="278" y="-211" type="line"/>
      <point x="302" y="-152"/>
      <point x="341" y="-122"/>
      <point x="405" y="-122" type="curve" smooth="yes"/>
      <point x="482" y="-122"/>
      <point x="592" y="-167"/>
      <point x="736" y="-235" type="curve"/>
      <point x="766" y="-103" type="line"/>
      <point x="640" y="-65"/>
      <point x="530" y="-42"/>
      <point x="444" y="-43" type="curve" smooth="yes"/>
      <point x="322" y="-43"/>
      <point x="261" y="-90"/>
    </contour>
  </outline>
</glyph>
<glyph name="f.alt" format="1">
  <advance width="415"/>
  <outline>
    <contour>
      <point x="44" y="47" type="line"/>
      <point x="44" y="0" type="line"/>
      <point x="357" y="0" type="line"/>
      <point x="357" y="47" type="line"/>
      <point x="344" y="47" type="line" smooth="yes"/>
      <point x="285" y="47"/>
      <point x="241" y="59"/>
      <point x="241" y="85" type="curve"/>
      <point x="152" y="83" type="line"/>
      <point x="152" y="54"/>
      <point x="116" y="47"/>
      <point x="55" y="47" type="curve"/>
    </contour>
    <contour>
      <point x="44" y="540" type="line"/>
      <point x="44" y="484" type="line"/>
      <point x="401" y="484" type="line"/>
      <point x="401" y="540" type="line"/>
    </contour>
    <contour>
      <point x="241" y="567" type="line" smooth="yes"/>
      <point x="241" y="667"/>
      <point x="285" y="692"/>
      <point x="350" y="692" type="curve" smooth="yes"/>
      <point x="383" y="692"/>
      <point x="409" y="687"/>
      <point x="435" y="681" type="curve"/>
      <point x="435" y="750" type="line"/>
      <point x="416" y="757"/>
      <point x="380" y="761"/>
      <point x="347" y="761" type="curve" smooth="yes"/>
      <point x="249" y="761"/>
      <point x="152" y="718"/>
      <point x="152" y="567" type="curve"/>
      <point x="152" y="6" type="line"/>
      <point x="241" y="6" type="line"/>
    </contour>
  </outline>
</glyph>
<glyph name="j.alt" format="1">
  <advance width="365"/>
  <outline>
    <contour>
      <point x="181" y="620" type="curve" smooth="yes"/>
      <point x="239" y="620"/>
      <point x="276" y="651"/>
      <point x="276" y="698" type="curve" smooth="yes"/>
      <point x="276" y="744"/>
      <point x="239" y="777"/>
      <point x="181" y="777" type="curve" smooth="yes"/>
      <point x="123" y="777"/>
      <point x="87" y="744"/>
      <point x="87" y="698" type="curve" smooth="yes"/>
      <point x="87" y="651"/>
      <point x="123" y="620"/>
    </contour>
    <contour>
      <point x="110" y="-61" type="line" smooth="yes"/>
      <point x="110" y="-147"/>
      <point x="80" y="-177"/>
      <point x="22" y="-177" type="curve" smooth="yes"/>
      <point x="-13" y="-177"/>
      <point x="-45" y="-166"/>
      <point x="-64" y="-136" type="curve"/>
      <point x="-68" y="-162"/>
      <point x="-50" y="-182"/>
      <point x="-31" y="-182" type="curve"/>
      <point x="-31" y="-65" type="line"/>
      <point x="-167" y="-65" type="line"/>
      <point x="-167" y="-166" type="line"/>
      <point x="-135" y="-208"/>
      <point x="-63" y="-240"/>
      <point x="26" y="-240" type="curve" smooth="yes"/>
      <point x="154" y="-240"/>
      <point x="265" y="-184"/>
      <point x="265" y="-23" type="curve" smooth="yes"/>
      <point x="265" y="542" type="line"/>
      <point x="29" y="542" type="line"/>
      <point x="29" y="488" type="line"/>
      <point x="44" y="485" type="line" smooth="yes"/>
      <point x="84" y="479"/>
      <point x="110" y="470"/>
      <point x="110" y="441" type="curve" smooth="yes"/>
    </contour>
  </outline>
</glyph>
<glyph name="three.old" format="1">
  <advance width="647"/>
  <outline>
    <contour>
      <point x="380" y="198" type="line"/>
      <point x="520" y="198"/>
      <point x="611" y="135"/>
      <point x="611" y="23" type="curve" smooth="yes"/>
      <point x="611" y="-123"/>
      <point x="483" y="-193"/>
      <point x="334" y="-193" type="curve" smooth="yes"/>
      <point x="168" y="-193"/>
      <point x="53" y="-116"/>
      <point x="35" y="40" type="curve"/>
      <point x="197" y="40" type="line"/>
      <point x="207" y="-58"/>
      <point x="255" y="-97"/>
      <point x="326" y="-97" type="curve" smooth="yes"/>
      <point x="394" y="-97"/>
      <point x="446" y="-61"/>
      <point x="446" y="29" type="curve" smooth="yes"/>
      <point x="446" y="120"/>
      <point x="395" y="147"/>
      <point x="312" y="147" type="curve" smooth="yes"/>
      <point x="234" y="147" type="line"/>
      <point x="234" y="223" type="line"/>
      <point x="301" y="223" type="line" smooth="yes"/>
      <point x="377" y="223"/>
      <point x="416" y="269"/>
      <point x="416" y="341" type="curve" smooth="yes"/>
      <point x="416" y="408"/>
      <point x="386" y="442"/>
      <point x="329" y="442" type="curve" smooth="yes"/>
      <point x="265" y="442"/>
      <point x="231" y="397"/>
      <point x="222" y="317" type="curve"/>
      <point x="63" y="317" type="line"/>
      <point x="81" y="453"/>
      <point x="183" y="537"/>
      <point x="336" y="537" type="curve" smooth="yes"/>
      <point x="486" y="537"/>
      <point x="575" y="466"/>
      <point x="575" y="355" type="curve" smooth="yes"/>
      <point x="575" y="253"/>
      <point x="491" y="187"/>
      <point x="358" y="187" type="curve"/>
    </contour>
  </outline>
</glyph>
<glyph name="two.oldalt" format="1">
  <advance width="625"/>
  <outline>
    <contour>
      <point x="122" y="50" type="curve"/>
      <point x="139" y="62"/>
      <point x="148" y="95"/>
      <point x="164" y="100" type="curve"/>
      <point x="485" y="100" type="line"/>
      <point x="485" y="100" type="line"/>
      <point x="485" y="174" type="line"/>
      <point x="578" y="174" type="line"/>
      <point x="578" y="0" type="line"/>
      <point x="50" y="0" type="line"/>
      <point x="50" y="14"/>
      <point x="50" y="88"/>
      <point x="50" y="93" type="curve"/>
      <point x="248" y="190"/>
      <point x="385" y="255"/>
      <point x="385" y="367" type="curve" smooth="yes"/>
      <point x="385" y="417"/>
      <point x="356" y="445"/>
      <point x="309" y="445" type="curve" smooth="yes"/>
      <point x="251" y="445"/>
      <point x="221" y="403"/>
      <point x="207" y="334" type="curve"/>
      <point x="54" y="334" type="line"/>
      <point x="75" y="456"/>
      <point x="168" y="537"/>
      <point x="316" y="537" type="curve" smooth="yes"/>
      <point x="458" y="537"/>
      <point x="543" y="474"/>
      <point x="543" y="371" type="curve" smooth="yes"/>
      <point x="543" y="231"/>
      <point x="383" y="162"/>
    </contour>
  </outline>
</glyph>
